<svg xmlns="http://www.w3.org/2000/svg" viewBox="0 0 32 32">
  <path fill="#326CE5" d="M15.9.476a2.14 2.14 0 0 0-.823.218L3.932 6.01c-.582.277-1.005.804-1.15 1.432L.054 19.373c-.13.56-.025 1.147.3 1.627q.057.087.12.168l7.7 9.574c.407.5 1.018.79 1.662.79h12.35c.646 0 1.257-.293 1.664-.795l7.696-9.576c.326-.4.467-.915.39-1.414c-.006-.043-.013-.086-.022-.128L29.184 7.43c-.146-.628-.57-1.155-1.15-1.432L16.89.695A2.14 2.14 0 0 0 15.9.476z"/>
  <path fill="#FFF" d="M16.002 4.542c-.384.027-.675.356-.655.74v.49c.017.398-.435.8-.435 1.207c0 .075.017.148.044.22c-.554.323-1.01.746-1.35 1.238c-.427-.21-.914-.412-1.384-.412c-.465 0-.923.088-1.326.256c-.404-.583-.92-1.075-1.517-1.447c.015-.06.024-.12.024-.183c0-.398-.454-.813-.437-1.21v-.488c.02-.384-.27-.713-.655-.74c-.385-.027-.714.27-.74.654v.488c-.018.397.437.812.437 1.21c0 .074-.016.147-.042.22a4.44 4.44 0 0 0-1.35 1.236c-.427-.21-.914-.412-1.384-.412c-.465 0-.923.088-1.326.256c-.404-.583-.92-1.075-1.517-1.447c.015-.06.024-.12.024-.183c0-.398-.454-.813-.437-1.21v-.488c.02-.384-.27-.713-.655-.74c-.385-.027-.714.27-.74.654v.488c-.018.397.437.812.437 1.21c0 .064-.012.127-.032.186c-.496.33-.934.74-1.298 1.21c-.037-.004-.074-.006-.112-.006c-.398 0-.813.454-1.21.437h-.49c-.384-.02-.713.27-.74.655c-.027.385.27.714.654.74h.49c.397.017.812-.437 1.21-.437c.075 0 .148.017.22.044c.323.554.746 1.01 1.238 1.35c-.21.427-.412.914-.412 1.384c0 .465.088.923.256 1.326c-.583.404-1.075.92-1.447 1.517c-.06-.015-.12-.024-.183-.024c-.398 0-.813.454-1.21.437h-.488c-.384-.02-.713.27-.74.655c-.027.385.27.714.654.74h.488c.397.017.812-.437 1.21-.437c.074 0 .147.016.22.042c.33.496.74.934 1.21 1.298c-.004.037-.006.074-.006.112c0 .398.454.813.437 1.21v.49c-.02.384.27.713.655.74c.385.027.714-.27.74-.654v-.49c.017-.397-.437-.812-.437-1.21c0-.075.017-.148.044-.22c.554-.323 1.01-.746 1.35-1.238c.427.21.914.412 1.384.412c.465 0 .923-.088 1.326-.256c.404.583.92 1.075 1.517 1.447c-.015.06-.024.12-.024.183c0 .398.454.813.437 1.21v.488c-.02.384.27.713.655.74c.385.027.714-.27.74-.654v-.488c.018-.397-.437-.812-.437-1.21c0-.074.016-.147.042-.22c.496-.33.934-.74 1.298-1.21c.037.004.074.006.112.006c.398 0 .813-.454 1.21-.437h.49c.384.02.713-.27.74-.655c.027-.385-.27-.714-.654-.74h-.49c-.397-.017-.812.437-1.21.437c-.075 0-.148-.017-.22-.044c-.323-.554-.746-1.01-1.238-1.35c.21-.427.412-.914.412-1.384c0-.465-.088-.923-.256-1.326c.583-.404 1.075-.92 1.447-1.517c.06.015.12.024.183.024c.398 0 .813-.454 1.21-.437h.488c.384.02.713-.27.74-.655c.027-.385-.27-.714-.654-.74h-.488c-.397-.017-.812.437-1.21.437c-.074 0-.147-.016-.22-.042c-.33-.496-.74-.934-1.21-1.298c.004-.037.006-.074.006-.112c0-.398-.454-.813-.437-1.21v-.49c.02-.384-.27-.713-.655-.74zm-5.27 6.555c.466-.001.824.378.825.845c0 .466-.378.824-.845.825c-.466 0-.824-.378-.825-.845c0-.466.378-.824.845-.825zm3.462 3.462c.466-.001.824.378.825.845c0 .466-.378.824-.845.825c-.466 0-.824-.378-.825-.845c0-.466.378-.824.845-.825z"/>
</svg>